<?xml version="1.0" encoding="UTF-8"?>
<!DOCTYPE svg PUBLIC "-//W3C//DTD SVG 1.1//EN" "http://www.w3.org/Graphics/SVG/1.1/DTD/svg11.dtd">
<!-- Creator: CorelDRAW -->
<svg xmlns="http://www.w3.org/2000/svg" xml:space="preserve" width="114.468mm" height="41.1252mm" style="shape-rendering:geometricPrecision; text-rendering:geometricPrecision; image-rendering:optimizeQuality; fill-rule:evenodd; clip-rule:evenodd"
viewBox="0 0 106.943 38.4215"
 xmlns:xlink="http://www.w3.org/1999/xlink">
 <defs>
  <style type="text/css">
   <![CDATA[
    .fil0 {fill:none}
   ]]>
  </style>
 </defs>
 <g id="Capa_x0020_1">
  <metadata id="CorelCorpID_0Corel-Layer"/>
  <g id="_145532952">
   <path id="_146151680" class="fil0" d="M83.3827 10.6556l0 -9.73347 4.09747 0 0 9.52849c0,1.08589 0.854659,1.43446 1.94625,1.43446l0 3.99582 -1.12681 0c-3.02634,0 -4.9169,-2.14048 -4.9169,-5.2253zm-0.51216 1.0246l0.102488 0.922112 0.102395 0.307371 0.102395 0.204883 0.102488 0.409859 0.102395 0.102395 0.102488 0.204976 0.102395 0.102395 0.102488 0.204976 0.102395 0.102395 0.102488 0.102488 0.102395 0.204883 0.102395 0.102488 0.102488 0.102488 0.102395 0.102395 0.102488 0.102488 0.102395 0.102488 0.204883 0 0 0.204883 0.102395 0.102488 0.204883 0.102395 0.102488 0.102488 0.204883 0.102488 0.102395 0.102395 0.307277 0.102488 0.102488 0.102488 0.307277 0.102488 0.409765 0.102395 0.307277 0.102488 0.409765 0.102488 2.66338 0 0 -5.12291 -1.12681 -0.102488 -0.409765 -0.102395 -0.102488 -0.102488 -0.102395 -0.204883 -0.102395 -0.307464 -0.102488 -10.0407 -5.12179 0 0 11.2703z"/>
   <path id="_174734296" class="fil0" d="M34.8282 9.4261l-0.102488 0.204883 -0.102395 0.307371 0 0.204883 -0.204883 0 -0.102488 0.204976 -0.102395 0.102395 -0.102395 0.102488 -0.102488 0.102488 0 0.204883 -0.204883 0 -0.102395 0.102488 -0.102488 0.102488 -0.204789 0.102395 -0.102488 0.102488 -0.307277 0.102488 -0.307371 0.102395 -0.307277 0.102488 -0.204883 0.102488 -0.10146 -6.36528 0.61362 0.115381 0.307371 0.102395 0.102395 0.102488 0.307371 0.102488 0.102395 0.102395 0.102395 0.102488 0.204883 0.102488 0.204883 0 0 0.204883 0.102488 0.102488 0.102395 0.102395 0.102395 0.204976 0.102488 0.102395 0.102395 0.102488 0.102488 0.102488 0.102395 0.307371 0.102488 0.204883 0.102395 0.307371 0 1.22948 -0.102395 0.409859zm-7.78517 -8.4015l5.12179 0c2.04294,0 3.96966,0.938462 4.99473,1.97138 0.932202,0.939302 2.38067,2.81006 2.38067,4.5859l0 1.53685c0,1.64747 -1.29862,3.70685 -2.17663,4.58506 -1.05347,1.05375 -2.64488,2.07461 -4.68661,2.07461l0 -3.68845c1.41718,-0.330167 2.86826,-1.62738 2.86826,-3.27859l0 -0.614741c0,-1.61627 -1.78705,-3.48357 -3.17554,-3.48357l-0.819437 0 0 11.1678 -4.50723 0 0 -14.8563zm-0.51216 15.3686l6.55587 0 0.614648 -0.102488 0.409765 -0.102488 0.614555 -0.102395 0.204883 -0.102488 0.204883 -0.102488 0.307277 -0.102488 0.307371 -0.102395 0.102395 -0.102488 0.204883 -0.102488 0.204883 -0.102395 0.204883 -0.102488 0.102395 -0.102488 0.204883 -0.102395 0.102395 -0.102488 0.102488 -0.102488 0.102395 -0.102395 0.204883 -0.102488 0.102488 -0.102488 0.102395 -0.102395 0.102488 -0.102488 0.102395 -0.102488 0.102395 -0.102395 0.102488 -0.102488 0.102395 -0.102488 0.102488 -0.102395 0.102395 -0.102488 0.102488 -0.102488 0.102395 -0.102395 0.102488 -0.204976 0.102395 -0.102395 0.102395 -0.204976 0.102488 -0.102395 0.102395 -0.102488 0.102488 -0.204883 0.102395 -0.204976 0.102488 -0.102395 0.102395 -0.307371 0.102395 -0.204976 0.102488 -0.204883 0.102395 -0.204883 0.102488 -0.409859 0.102395 -0.307371 0.102488 -0.307371 0.102395 -0.819717 0.102488 -0.717136 0 -1.22948 -0.102488 -0.614741 -0.102395 -0.614741 -0.102488 -0.307371 -0.102395 -0.204976 -0.102488 -0.409765 -0.102395 -0.204976 -0.102488 -0.204883 -0.102395 -0.204976 -0.102395 -0.204883 -0.102488 -0.102488 -0.102395 -0.204883 -0.102488 -0.204883 -0.102395 -0.204976 -0.204883 0 0 -0.307371 -0.102395 -0.102395 -0.102488 -0.102488 -0.102395 -0.102488 -0.102488 -0.102395 -0.102395 -0.102488 -0.102488 -0.102488 -0.102395 -0.102395 -0.102488 -0.102488 -0.102395 -0.102488 -0.102395 -0.102395 -0.102488 -0.102488 -0.102395 -0.102488 -0.102488 -0.102395 -0.102395 -0.102488 -0.204883 -0.102488 -0.102488 -0.102395 -0.102395 -0.102488 -0.204883 -0.102488 -0.204883 -0.102395 -0.102395 -0.102488 -0.102488 -0.102488 -0.307277 -0.102395 -0.204883 -0.102488 -0.204883 -0.102488 -0.204883 -0.102395 -0.307277 -0.102488 -0.204883 -0.102488 -0.307277 -0.102395 -0.614648 -0.102488 -0.51216 -0.102488 -1.02432 -0.102395 -5.73643 0 0 15.9834z"/>
   <path id="_174734368" class="fil0" d="M42.2035 5.12291c0,-2.44682 1.85927,-4.2008 4.19986,-4.2008l4.09747 0 0 3.99582 -3.17554 0c-0.506274,0 -0.921925,0.415745 -0.921925,0.922112l0 0.307371c0,0.295506 0.673319,0.819717 0.921925,0.819717l2.86826 0 0 2.97122 -3.38042 0c-0.372675,0 -0.717043,0.499547 -0.717043,0.922112l0 0.102488c0,0.506368 0.415651,0.922112 0.921925,0.922112l3.48282 0 0 3.99582 -3.89258 0c-2.04359,0 -4.40474,-1.73791 -4.40474,-3.48357l0 -7.27441zm2.86826 -4.61065l-0.307371 0.102488 -0.307277 0.102488 -0.307277 0.102395 -0.102488 0.102488 -0.204883 0.102488 -0.102395 0.102395 -0.204883 0.102488 -0.102395 0.102488 -0.204883 0.102395 -0.102488 0.102488 -0.102395 0.102488 -0.102488 0.102395 -0.102395 0.102488 -0.102395 0.102488 -0.102488 0.102395 -0.102395 0.204976 -0.102488 0.102395 -0.102395 0.102488 -0.102488 0.204883 -0.102395 0.204976 -0.102488 0.102395 -0.102395 0.307371 -0.102395 0.204976 -0.102488 0.307371 -0.102395 0.409765 0 8.2991 0.102395 0.409859 0.102488 0.307371 0.102395 0.204883 0.102395 0.307371 0.102488 0.204883 0.102395 0.102488 0.102488 0.307371 0.102395 0.102488 0.102488 0.102395 0.102395 0.102488 0.102488 0.204883 0.102395 0.102488 0.102395 0.102488 0.102488 0.102395 0.204883 0.102488 0.102395 0.102488 0.102488 0.102395 0.204883 0.102488 0.102395 0.102488 0.102395 0.102395 0.307371 0.102488 0.102395 0.102488 0.204883 0.102488 0.409765 0.102395 0.307277 0.102488 0.409765 0.102488 5.42906 0 0 -5.02042 -3.99498 -0.102488 -0.204883 -0.102488 -0.102395 -0.204883 0 -0.204883 0 -0.204976 0.51216 0 3.48282 -0.102488 0 -4.09821 -3.27794 -0.102488 -0.409765 0 0 -0.204883 -0.102395 -0.409859 0.204789 0 0.204883 -0.102488 3.6877 -0.102395 0 -5.02042 -5.53155 0 -0.409672 0.102395z"/>
   <path id="_174734440" class="fil0" d="M57.0567 4.40568c0,-1.77855 1.97437,-3.79094 3.6877,-3.79094l0.409765 0c2.0307,0 2.9857,1.02965 3.6877,2.35648 0.402291,-0.294758 0.617731,-1.07598 1.4523,-1.62112 0.499921,-0.326523 1.44371,-0.735354 2.2354,-0.735354l0.614555 0c1.08785,0 2.23783,0.90679 2.73803,1.5646 0.771884,1.01507 0.949673,1.63308 0.949673,3.35333l0 10.3482 -4.09747 0 0 -10.3482c0,-0.285322 -0.43172,-0.717229 -0.717043,-0.717229l-0.102395 0c-0.506274,0 -0.921925,0.415745 -0.921925,0.922206l0 10.1432 -4.09747 0 0 -10.1432c0,-0.506461 -0.415558,-0.922206 -0.921925,-0.922206 -0.308959,0 -0.819437,0.4178 -0.819437,0.717229l0 10.3482 -4.09747 0 0 -11.4752zm2.97066 -4.30319l-0.307277 0.102395 -0.204883 0.102488 -0.307371 0.102488 -0.204789 0.102395 -0.102488 0.102488 -0.307277 0.102488 -0.102488 0.102395 -0.102395 0.102488 -0.102488 0.102488 -0.204789 0.102395 -0.102488 0.102488 0 0.204883 -0.204883 0 -0.102395 0.102488 -0.102488 0.102488 -0.102395 0.102395 -0.102395 0.102488 -0.102488 0.204883 -0.102395 0.204976 -0.102488 0.102395 -0.102395 0.102488 -0.102488 0.307371 -0.102395 0.307371 -0.102488 0.204883 -0.102395 0.307371 0 12.8073 5.12179 0 0.102395 -10.6556 0.102488 -0.204976 0.102395 -0.102395 0.102488 0 0.102395 0.102395 0.102488 0.204976 0.102395 10.6556 5.12179 0 0.102488 -10.6556 0.102395 -0.204976 0.307277 0 0.102488 0.102488 0.102395 10.7581 5.12179 0 0 -12.7048 -0.102395 -0.307371 -0.102488 -0.204883 -0.102395 -0.307371 -0.102488 -0.307371 -0.102395 -0.102488 -0.102395 -0.102488 -0.102488 -0.204883 -0.102395 -0.204883 -0.102488 -0.102488 -0.102395 -0.102488 -0.102488 -0.204883 -0.102395 -0.102488 -0.204883 0 0 -0.204883 -0.102395 -0.102488 -0.204883 -0.102395 -0.102488 -0.102488 -0.102395 -0.102488 -0.204883 -0.102395 -0.204883 -0.102488 -0.102395 -0.102488 -0.204883 -0.102395 -0.409765 -0.102488 -0.204883 -0.102488 -0.307277 -0.102395 -0.51216 -0.102488 -1.2293 0 -0.51216 0.102488 -0.204883 0.102395 -0.307277 0.102488 -0.307277 0.102488 -0.204883 0.102395 -0.204883 0.102488 -0.204883 0.102488 -0.102488 0.102395 -0.102395 0.102488 -0.102395 0.102488 -0.204883 0.102395 -0.102488 0.102488 -0.102395 0.102488 -0.102488 0.102395 -0.102395 0.102488 -0.102395 0.102488 -0.102488 0.102395 -0.102395 0 -0.102488 -0.102395 -0.102395 -0.204976 -0.204883 -0.102395 -0.102488 -0.102488 -0.102395 -0.102488 -0.102395 -0.102395 -0.102488 -0.102488 -0.102395 -0.102488 -0.102488 -0.102395 -0.204883 -0.102488 -0.204883 -0.102488 -0.204789 -0.102395 -0.307371 -0.102488 -0.307277 -0.102488 -0.307277 -0.102395 -0.512253 -0.102488 -1.2292 0 -0.51216 0.102488z"/>
   <path id="_174734512" class="fil0" d="M76.0074 0.922112l4.19986 0 0 14.9588 -4.19986 0 0 -14.9588zm-0.512253 15.4711l5.22427 0 0 -15.9834 -5.22427 0 0 15.9834z"/>
   <path id="_174734584" class="fil0" d="M5.42906 28.893l0 0.922112c0,1.54227 1.84086,3.1762 3.48282,3.1762l0.614648 0c1.73763,0 3.38033,-1.60309 3.38033,-3.27868l1.23032 -0.0248512 3.58419 0.127339 0 0.409765c0,1.96568 -1.49537,4.20958 -2.53539,5.25081 -1.1368,1.13811 -3.22945,2.43355 -5.45457,2.43355l-0.921925 0c-4.16828,0 -8.29733,-4.09653 -8.29733,-8.19661l0 -0.614741c0,-4.30011 3.92706,-8.50399 8.09244,-8.50399l1.2292 0c1.95297,0 4.09933,1.25499 5.19793,2.17794 1.316,1.10579 2.23596,2.84154 2.68814,4.76658l-5.0178 0.32998c-0.268973,-1.15446 -1.80854,-2.45897 -3.27803,-2.45897 -2.13609,0 -3.99498,1.42502 -3.99498,3.48357zm2.4585 -8.81136l-0.819531 0.102395 -0.409672 0.102488 -0.204883 0.102488 -0.51216 0.102395 -0.102488 0.102488 -0.307277 0.102488 -0.102488 0.102395 -0.307277 0.102488 -0.204883 0.102488 -0.102395 0.102395 -0.307371 0.102488 -0.102395 0.102488 -0.204883 0.102395 -0.204883 0.102488 -0.102395 0.102488 -0.102488 0.102488 -0.102395 0.102395 -0.204883 0.102488 -0.102395 0.102488 -0.102488 0.102395 -0.204883 0.102488 -0.102395 0.102488 -0.102488 0.102395 -0.102395 0.102488 -0.102488 0.102488 -0.102395 0.102395 -0.102395 0.102488 -0.102488 0.102488 -0.102395 0.204883 -0.204883 0.102488 -0.102488 0.204883 0 0.204883 -0.204883 0 -0.102395 0.204976 -0.102395 0.102395 -0.102488 0.204976 -0.102395 0.102395 -0.102488 0.204976 -0.102395 0.204883 -0.102488 0.102488 -0.102395 0.307371 -0.102395 0.204883 -0.102488 0.102488 -0.102395 0.204883 -0.102488 0.409859 -0.102395 0.204883 -0.102488 0.204883 -0.102395 0.512347 -0.102488 0.409859 -0.102395 0.512253 0 2.66385 0.102395 0.512347 0.102488 0.409765 0.102395 0.512347 0.102488 0.307371 0.102395 0.204883 0.102488 0.307371 0.102395 0.307371 0.102488 0.102488 0.102395 0.204883 0.102395 0.307371 0.102488 0.102488 0.102395 0.102488 0.102488 0.307371 0.102395 0.102395 0.102488 0.102488 0.102395 0.204883 0.102395 0.204976 0.204883 0 0 0.204883 0.102488 0.102488 0.102395 0.102395 0.102488 0.102488 0.102395 0.204883 0.102488 0.102488 0.102395 0.102488 0.102395 0.102395 0.102488 0.102488 0.204883 0.102488 0.102395 0.102395 0.102488 0.102488 0.102395 0.102488 0.102488 0.102395 0.102395 0.102488 0.204883 0.102488 0.102395 0.102395 0.102488 0.102488 0.204883 0.102488 0.102395 0.102395 0.204883 0.102488 0.102395 0.102488 0.307371 0.102395 0.102395 0.102488 0.204883 0.102488 0.307277 0.102395 0.204883 0.102488 0.204883 0.102488 0.409765 0.102395 0.204883 0.102488 0.307277 0.102488 0.307277 0.102395 0.921925 0.102488 2.66338 0 0.819437 -0.102488 0.307371 -0.102395 0.307277 -0.102488 0.204883 -0.102488 0.409765 -0.102395 0.204789 -0.102488 0.102488 -0.102488 0.307277 -0.102395 0.204883 -0.102488 0.102488 -0.102488 0.204789 -0.102395 0.204883 -0.102488 0.102488 -0.102488 0.102395 -0.102395 0.307371 -0.102488 0.102395 -0.102488 0.102395 -0.102395 0.204883 -0.102488 0.102488 -0.102488 0.102395 -0.102395 0.102488 -0.102488 0.102395 -0.102488 0.102395 -0.102395 0.102488 -0.102488 0.102395 -0.102488 0.204883 -0.102395 0.102488 -0.204976 0.102395 -0.102395 0.102488 -0.102488 0.102395 -0.102488 0.102395 -0.102395 0.102488 -0.204976 0.102395 -0.102395 0.102488 -0.102488 0.102395 -0.204883 0.102488 -0.102488 0.102395 -0.204883 0.102488 -0.204976 0.102395 -0.204883 0.102395 -0.102488 0.102488 -0.204883 0.102395 -0.307371 0.102488 -0.204883 0.102395 -0.204976 0.102488 -0.409859 0.102395 -0.307371 0.102395 -0.204883 0.102488 -0.409859 0.102395 -0.614741 0.102488 -0.409765 0.102395 -0.512347 0 -0.717136 -4.71202 -0.102488 -1.2292 0 -0.102488 0.512253 -0.102395 0.307371 -0.102488 0.307371 -0.102395 0.204976 -0.102395 0.409765 -0.102488 0.102488 -0.102395 0.102488 -0.102488 0.204883 -0.102395 0.102488 -0.102488 0.102395 0 0.204976 -0.204883 0 -0.102395 0.102395 -0.102395 0.102488 -0.204883 0.102488 -0.102488 0.102395 -0.204883 0.102488 -0.409672 0.102488 -0.409765 0.102395 -1.02441 0 -0.409672 -0.102395 -0.307371 -0.102488 -0.204883 -0.102488 -0.204789 -0.102395 -0.204883 -0.102488 -0.102488 -0.102488 -0.102395 -0.102395 -0.204883 -0.102488 -0.102488 -0.102488 -0.102395 -0.102395 -0.102395 -0.204976 -0.102488 -0.102395 -0.102395 -0.102488 -0.102488 -0.204883 -0.102395 -0.307371 -0.102488 -0.204976 -0.102395 -0.307371 0 -1.33188 0.102395 -0.307371 0.102488 -0.204976 0.102395 -0.307371 0.102488 -0.204883 0.102395 -0.102488 0.102488 -0.102395 0.102395 -0.204976 0.102395 -0.102488 0.102488 -0.102395 0.102395 -0.102488 0.102488 -0.102488 0.204883 -0.102395 0.102395 -0.102488 0.204883 -0.102488 0.102395 -0.102395 0.204883 -0.102488 0.512253 -0.102488 1.43409 0 0.51216 0.102488 0.204883 0.102488 0.102395 0.102395 0.102488 0.102488 0.204883 0.102488 0.102395 0.102395 0.102395 0.102488 0.102488 0.102488 0.102395 0.102395 0.102488 0.102488 0.102395 0.102488 0.102488 0.204883 0.102395 0.102488 0.102488 0.102488 0.102395 0.307371 0.102395 0.204883 0.102488 0.102488 0.102395 0.204883 0.51216 0 1.2293 -0.102488 2.25352 -0.102395 1.33169 -0.102488 0.717043 -0.102488 0 -0.307371 -0.102395 -0.307371 -0.102488 -0.307371 -0.102395 -0.614741 -0.102488 -0.204883 -0.102395 -0.307371 -0.102395 -0.204976 -0.102488 -0.409765 -0.102395 -0.204976 -0.102488 -0.204883 -0.102395 -0.204883 -0.102488 -0.204976 -0.102395 -0.102395 -0.102395 -0.204976 -0.102488 -0.204883 -0.102395 -0.102488 -0.102488 -0.102395 -0.102395 -0.204976 -0.102488 -0.102395 -0.102395 -0.102488 -0.102488 -0.102488 -0.102395 -0.204883 -0.102395 -0.102488 -0.102488 -0.102395 -0.102395 -0.102488 -0.102488 -0.102488 -0.102395 -0.102395 -0.102488 -0.102488 -0.102395 -0.102488 -0.102488 -0.102395 -0.102395 -0.102488 -0.204883 -0.102488 -0.102395 -0.102395 -0.102488 -0.102488 -0.204883 -0.102488 -0.102395 -0.102395 -0.102395 -0.102488 -0.102488 -0.102488 -0.204883 -0.102488 -0.204883 -0.102395 -0.102395 -0.102488 -0.307277 -0.102488 -0.102488 -0.102395 -0.204883 -0.102488 -0.307277 -0.102488 -0.102488 -0.102395 -0.307277 -0.102488 -0.204883 -0.102488 -0.409672 -0.102395 -0.307371 -0.102488 -0.307277 -0.102488 -0.819531 -0.102395 -0.921925 -0.102488 -0.819437 0 -0.921925 0.102488z"/>
   <path id="_174734656" class="fil0" d="M49.5789 29.4053c0,-5.11422 3.21814,-8.81136 8.19484,-8.81136l0.717043 0c2.19971,0 4.56357,0.932482 5.66123,2.02201 0.652953,0.648094 1.29058,1.23481 1.71567,2.0748 0.188907,0.373329 1.02283,2.34237 1.02283,2.76783l0 1.94671 -0.223942 2.14926c-0.354831,0.560835 -0.598672,1.70446 -1.14858,2.52287 -0.524399,0.780666 -1.02815,1.36775 -1.7266,1.96157 -1.1483,0.976392 -3.29802,1.87029 -5.403,1.87029l-0.204883 0c-4.77462,0 -8.6046,-3.75917 -8.6046,-8.50399zm7.06803 -9.32361l-0.819437 0.102395 -0.307277 0.102488 -0.307371 0.102488 -0.409672 0.102395 -0.307371 0.102488 -0.204883 0.102488 -0.204883 0.102395 -0.307277 0.102488 -0.102395 0.102488 -0.204883 0.102395 -0.307371 0.102488 -0.102395 0.102488 -0.102395 0.102395 -0.204883 0.102488 -0.204883 0.102488 -0.102488 0.102488 -0.102395 0.102395 -0.204883 0.102488 -0.102395 0.102488 -0.102488 0.102395 -0.204883 0.102488 -0.102395 0.204883 -0.102488 0.102488 -0.204789 0.102488 -0.102488 0.204883 -0.102395 0.102488 -0.102488 0.102395 0 0.204976 -0.204883 0 -0.102395 0.102395 -0.102488 0.204976 -0.102395 0.102395 -0.102395 0.204976 -0.102488 0.102395 -0.102395 0.204976 -0.102488 0.204883 -0.102395 0.102488 -0.102488 0.307371 -0.102395 0.204883 -0.102395 0.102488 -0.102488 0.307371 -0.102395 0.307371 -0.102488 0.307371 -0.102395 0.204883 -0.102488 0.717229 -0.102395 0.512253 -0.102488 1.0246 0 0.922112 0.102488 1.0246 0.102395 0.614741 0.102488 0.717136 0.102395 0.307371 0.102488 0.307371 0.102395 0.307371 0.102488 0.307464 0.102395 0.102395 0.102395 0.204976 0.102488 0.307371 0.102395 0.204883 0.102488 0.102488 0.102395 0.307371 0.102488 0.102395 0.102395 0.102488 0.102395 0.204883 0.102488 0.204976 0.102395 0.102395 0.102488 0.102488 0.102395 0.204883 0.102488 0.102488 0.102395 0.102488 0.102488 0.102395 0.102395 0.102488 0.102395 0.102488 0.102488 0.102395 0.102395 0.102488 0.102488 0.102488 0.102395 0.102395 0.102488 0.102488 0.102395 0.102488 0.204883 0.102395 0.102395 0.102488 0.102488 0.102488 0.204883 0 0 0.204883 0.307277 0.102488 0.102395 0.102395 0.102488 0.102488 0.204883 0.102488 0.204883 0.102395 0.204883 0.102488 0.204789 0.102488 0.307371 0.102395 0.204883 0.102488 0.204883 0.102488 0.409672 0.102395 0.307371 0.102488 0.307277 0.102488 0.307277 0.102395 0.921925 0.102488 2.4585 0 0.921925 -0.102488 0.307277 -0.102395 0.307277 -0.102488 0.307371 -0.102488 0.409672 -0.102395 0.204883 -0.102488 0.204883 -0.102488 0.307371 -0.102395 0.204789 -0.102488 0.204883 -0.102488 0.204883 -0.102395 0.102488 -0.102488 0.102395 -0.102488 0.204883 -0.102395 0.204883 -0.102488 0.102395 -0.102488 0.102488 -0.102395 0.204883 -0.102488 0.102395 -0.102488 0.102395 -0.102395 0.102488 -0.102488 0.204883 -0.102488 0.102395 -0.204883 0.204883 -0.102488 0.102488 -0.204883 0.204789 -0.102488 0.102488 -0.204883 0 -0.204883 0.204883 0 0.102395 -0.102488 0.102488 -0.204883 0.102395 -0.102488 0.102395 -0.204883 0.102488 -0.204976 0.102395 -0.102395 0.102488 -0.102488 0.102395 -0.204883 0.102488 -0.307371 0.102395 -0.204976 0.102488 -0.102395 0.102395 -0.307371 0.102395 -0.204976 0.102488 -0.307371 0.102395 -0.204883 0.102488 -0.512347 0.102395 -0.409765 0.102488 -0.409859 0 -3.79094 -0.102488 -0.512253 -0.102395 -0.307371 -0.102488 -0.512347 -0.102395 -0.204883 -0.102488 -0.204883 -0.102395 -0.204976 -0.102395 -0.307371 -0.102488 -0.204883 -0.102395 -0.102488 -0.102488 -0.307371 -0.102395 -0.102395 -0.102488 -0.204976 -0.102395 -0.102395 -0.102488 -0.204976 -0.102395 -0.102395 -0.102395 -0.102488 -0.102488 -0.204883 -0.102395 -0.102488 -0.102488 -0.102488 -0.102395 -0.102395 -0.102488 -0.204976 -0.102395 -0.102395 -0.204883 0 0 -0.204976 -0.204883 -0.102395 -0.102395 -0.102488 -0.102488 -0.102488 -0.102395 -0.102395 -0.102488 -0.102488 -0.204789 -0.102488 -0.102488 -0.102395 -0.102395 -0.102488 -0.204883 -0.102488 -0.102488 -0.102488 -0.204883 -0.102395 -0.204789 -0.102488 -0.204883 -0.102488 -0.102488 -0.102395 -0.204883 -0.102488 -0.409672 -0.102488 -0.102488 -0.102395 -0.307277 -0.102488 -0.204883 -0.102488 -0.51216 -0.102395 -0.307371 -0.102488 -0.307277 -0.102488 -0.819437 -0.102395 -0.819531 -0.102488 -1.43409 0 -0.819531 0.102488z"/>
   <path id="_174734728" class="fil0" d="M25.5065 28.2783l0.102395 -0.307371 0.102395 -0.102488 0.102488 -0.409859 0.102395 -0.102395 0.102488 -0.204976 0.102395 -0.102488 0 -0.204883 0.204883 0 0.102488 -0.102488 0 -0.204883 0.204789 0 0.102488 -0.102488 0.102395 -0.102395 0.102488 -0.102488 0.204883 -0.102488 0.204883 -0.102395 0.204789 -0.102488 0.307371 -0.102488 0.307277 -0.102395 0.614648 -0.102488 0.409672 0 0.614648 0.102488 0.307277 0.102395 0.409765 0.102488 0.102488 0.102488 0.204883 0.102395 0.204789 0.102488 0.204883 0 0 0.204883 0.204883 0.102488 0.102488 0.102488 0.102395 0.102395 0.102395 0.102488 0.102488 0.102488 0.102395 0.204883 0.102488 0.102488 0.102395 0.102488 0.102488 0.307371 0.102395 0.204883 0.102488 0.307371 0 2.04911 -0.102488 0.204976 -0.102395 0.204883 -0.102488 0.307371 -0.102395 0.204883 -0.102488 0.102488 -0.102395 0.102488 -0.102488 0.204883 -0.102395 0.102488 -0.102395 0.102395 0 0.204976 -0.204883 0 -0.102488 0.102395 -0.102395 0.102488 -0.204883 0.102488 -0.204883 0.102395 -0.204883 0.102488 -0.102395 0.102488 -0.51216 0.102395 -0.307371 0.102488 -1.12681 0 -0.409672 -0.102488 -0.409765 -0.102395 -0.204883 -0.102488 -0.102395 -0.102488 -0.204883 -0.102395 -0.204883 -0.102488 -0.102488 -0.102488 -0.102395 -0.102395 -0.204883 -0.102488 -0.102395 -0.204883 -0.204883 0 0 -0.204976 -0.102488 -0.102395 -0.102395 -0.204976 -0.102488 -0.102395 -0.102395 -0.102488 -0.102488 -0.409859 -0.102395 -0.307371 -0.102395 -0.307371 0 -1.63925zm-0.614648 0.409765l0 1.0246c0,1.819 1.92719,3.68845 3.7901,3.68845l0.819531 0c2.03836,0 3.6877,-2.10301 3.6877,-4.30319l0 -0.512253c0,-1.78602 -2.11142,-3.58605 -3.99507,-3.58605 -2.2269,0 -4.30226,1.56068 -4.30226,3.68845z"/>
   <path id="_174734800" class="fil0" d="M61.6663 30.3274l-0.102395 0.204883 -0.102488 0.204976 -0.102395 0.307371 -0.102488 0.102395 -0.102395 0.102488 -0.102488 0.204883 0 0.204976 -0.204883 0 -0.102395 0.102395 0 0.204976 -0.204883 0 -0.102395 0.102395 -0.102488 0.102488 -0.204883 0.102488 -0.102395 0.102395 -0.204883 0.102488 -0.204883 0.102488 -0.409765 0.102395 -0.409672 0.102488 -1.12681 0 -0.409765 -0.102488 -0.409765 -0.102395 -0.204883 -0.102488 -0.102395 -0.102488 -0.204883 -0.102395 -0.204883 -0.102488 -0.102395 -0.102488 -0.102488 -0.102395 -0.102395 -0.102488 -0.102488 -0.102488 -0.102395 -0.102395 -0.102395 -0.102488 -0.102488 -0.102488 -0.102395 -0.204883 -0.102488 -0.204883 -0.102395 -0.102488 -0.102488 -0.204883 -0.102395 -0.307371 -0.102395 -0.307371 -0.102488 -0.512347 0 -1.02451 0.102488 -0.409859 0.102395 -0.307371 0.102395 -0.307371 0.102488 -0.102488 0.102395 -0.204883 0.102488 -0.204976 0.102395 -0.102395 0.102488 -0.102488 0.102395 -0.102488 0.102395 -0.102395 0.102488 -0.102488 0.102395 -0.102488 0.102488 -0.102395 0.204883 -0.102488 0.204883 -0.102488 0.204789 -0.102395 0.102488 -0.102488 0.409765 -0.102488 0.307277 -0.102395 0.51216 -0.102488 0.51216 0 0.512253 0.102488 0.307277 0.102395 0.409765 0.102488 0.204883 0.102488 0.102395 0.102395 0.307277 0.102488 0.102488 0.102488 0.102395 0.102395 0.102488 0.102488 0.102395 0.102488 0.102395 0.102395 0.102488 0.102488 0.102395 0.102488 0.102488 0.102395 0.102395 0.102488 0.102488 0.204976 0.102395 0.204883 0.102488 0.204883 0.102395 0.204976 0.102395 0.614741 0 0.922112 -0.102395 0.819624zm-7.58028 -1.0246c0,2.09283 1.73221,4.09831 3.79019,4.09831l1.02432 0c1.49855,0 3.48282,-2.0151 3.48282,-3.58596l0 -1.53685c0,-1.49061 -2.21475,-3.27868 -3.89258,-3.27868l-0.102395 0 -1.63514 0.228706c-0.779918,0.495997 -1.02843,0.506181 -1.72202,1.22892 -0.303634,0.316526 -0.945188,1.5007 -0.945188,2.02594l0 0.819624z"/>
   <path id="_174734872" class="fil0" d="M40.5645 21.0038l4.50723 0 0 10.3482c0,0.891188 0.706485,1.63934 1.53648,1.63934l0.614648 0 0 4.50807 -1.43409 0c-3.16153,0 -5.22427,-2.39917 -5.22427,-5.63516l0 -10.8605zm-0.614555 11.4752l0.102395 0.819717 0.102488 0.409765 0.102395 0.512347 0.102395 0.307371 0.102488 0.204883 0.102395 0.307371 0.102488 0.102488 0.102395 0.204883 0.102488 0.102488 0.102395 0.204883 0.102488 0.102488 0.102395 0.102395 0.102395 0.204976 0.102488 0.102395 0.204883 0 0 0.204976 0.102395 0.102395 0.102488 0.102488 0.204789 0.102488 0.102488 0.102395 0.102395 0.102488 0.102488 0.102488 0.204883 0.102395 0.102395 0.102488 0.204883 0.102488 0.204883 0.102395 0.102395 0.102488 0.204883 0.102488 0.409765 0.102395 0.204883 0.102488 0.307277 0.102488 0.921925 0.102395 2.66338 0 0 -5.53267 -1.12681 -0.102488 -0.409765 -0.102395 -0.204883 -0.102488 -0.204883 0 0 -0.204883 -0.102395 -0.204976 -0.102488 -0.512253 -0.102395 -10.7581 -5.63395 0 0 11.9876z"/>
   <path id="_174734944" class="fil0" d="M69.7588 21.0038l7.17052 0c2.78876,0 5.22418,2.5637 5.22418,5.43018l0 0.307371c0,1.25938 -1.34458,3.54822 -2.25362,3.79094l2.81884 6.94508 -4.5602 0.0220485c-0.334651,0 -2.56089,-4.94745 -2.56089,-5.53267l0 -3.79094c0.928745,0 1.94625,-0.462364 1.94625,-1.33197l0 -0.512253c0,-0.713586 -0.695555,-1.22948 -1.43409,-1.22948l-1.74136 0 0 12.3973 -4.60963 0 0 -16.4956zm-0.51216 17.0079l5.63395 0 0.000186851 -12.4063 1.4339 0.111457 0.204883 0.102395 0.204883 0.102488 0.102395 0.204883 0.216654 0.00065398 -0.114166 0.819064 0 0.204883 -0.204883 0 0 0.204976 -0.204883 0 -0.409765 0.102395 -1.12681 0.102488 0 4.91793 0.102488 0.204883 0.102395 0.204976 0.102488 0.307371 0.102395 0.204883 0.102395 0.102488 0.102488 0.307371 0.102395 0.307371 0.102488 0.102488 0.102395 0.204883 0.102488 0.409859 0.102395 0.102395 0.102488 0.204976 0.102395 0.307371 0.102395 0.204883 0.102488 0.204883 0.102395 0.204976 0.102488 0.307371 0.102395 0.204883 0.102488 0.204883 0.102395 0.307371 0.102395 0.204976 0.102488 0.204883 0.102395 0.204883 0.102488 0.204976 0.102395 0.102395 5.94132 0 0 -0.307371 -0.102488 -0.307371 -0.102395 -0.204883 -0.102488 -0.204883 -0.102395 -0.307371 -0.102395 -0.204976 -0.102488 -0.307371 -0.102395 -0.102395 -0.102488 -0.409859 -0.102395 -0.204883 -0.102488 -0.204976 -0.102395 -0.307371 -0.102488 -0.204883 -0.102395 -0.204883 -0.102395 -0.204976 -0.102488 -0.307371 -0.102395 -0.307371 -0.102488 -0.102395 -0.102395 -0.409859 -0.102488 -0.204883 -0.102395 -0.204976 -0.102395 -0.307371 -0.102488 -0.204883 -0.102395 -0.204976 -0.102488 -0.204883 -0.102395 -0.409859 -0.102488 -0.204883 -0.102395 -0.102488 0 -0.409765 0.204883 -0.102488 0.102395 -0.204883 0.204883 -0.102488 0.102488 -0.204883 0.102395 -0.102488 0.102395 -0.102488 0.102488 -0.102395 0.102395 -0.204976 0.102488 -0.102395 0.102395 -0.204976 0.102488 -0.204883 0.102395 -0.204883 0.102395 -0.204976 0.102488 -0.204883 0.102395 -0.307371 0.102488 -0.307371 0.102395 -0.409859 0 -2.35648 -0.102395 -0.307371 -0.102488 -0.307371 -0.102395 -0.307371 -0.102488 -0.204976 -0.102395 -0.204883 -0.102395 -0.102488 -0.102488 -0.307371 -0.102395 -0.102395 -0.102488 -0.204976 -0.102395 -0.102395 -0.102488 -0.204976 -0.102395 -0.102395 -0.102395 -0.102488 -0.102488 -0.102488 -0.102395 -0.102395 -0.102488 -0.102488 -0.102395 -0.102488 -0.102488 -0.102395 -0.102395 -0.102488 -0.102488 -0.102488 -0.102395 -0.102395 -0.204883 -0.102488 -0.102395 -0.102488 -0.204883 -0.102488 -0.102488 -0.102395 -0.102395 -0.102488 -0.307277 -0.102488 -0.102488 -0.102395 -0.204883 -0.102488 -0.307277 -0.102488 -0.307277 -0.102395 -0.204883 -0.102488 -0.307371 -0.102488 -8.80939 0 0 17.5202z"/>
   <path id="_174735016" class="fil0" d="M85.8412 25.5119c0,-2.31565 2.045,-4.50807 4.30226,-4.50807l4.917 0 0 4.30319 -3.07315 0c-0.700226,0 -1.43409,0.451153 -1.43409,1.12699 0,0.598672 0.528323,1.12709 1.12681,1.12709l3.17554 0 0 3.38108 -3.48282 0c-0.76796,0 -1.12681,0.358942 -1.12681,1.12699 0,0.51515 0.509357,1.0246 1.02432,1.0246l3.89258 0 0 4.40568 -4.60963 0c-1.22294,0 -2.48204,-0.653793 -3.15882,-1.24611 -0.530004,-0.463859 -1.5532,-1.87048 -1.5532,-2.74971l0 -7.99173zm2.97066 -4.91793l-0.204883 0.102488 -0.204883 0.102395 -0.307277 0.102488 -0.204883 0.102488 -0.102488 0.102395 -0.204883 0.102488 -0.102395 0.102488 -0.102488 0.102395 -0.204789 0.102488 -0.102488 0.102488 -0.102395 0.102488 -0.102488 0.102395 -0.102395 0.102488 -0.102488 0.102488 -0.102395 0.102395 -0.102395 0.102488 -0.102488 0.102488 -0.102395 0.102395 -0.102488 0.204976 -0.102395 0.102395 -0.102488 0.204976 -0.102395 0.102395 -0.102488 0.204976 -0.102395 0.307371 -0.102395 0.204883 -0.102488 0.307371 -0.102395 0.307371 0 9.52859 0.102395 0.409765 0.102488 0.204976 0.102395 0.307371 0.102395 0.307371 0.102488 0.102395 0.102395 0.204976 0.102488 0.204883 0.102395 0.204883 0.204883 0 0 0.204976 0.102488 0.102395 0.102395 0.102488 0.102395 0.102488 0.102488 0.204883 0.204883 0.102488 0.102395 0.102395 0.102488 0.102488 0.102395 0.102488 0.204883 0 0 0.204883 0.204883 0.102488 0.204883 0.102395 0.204883 0.102488 0.204789 0.102488 0.307371 0.102395 0.204883 0.102488 0.307277 0.102488 0.819531 0.102395 5.73634 0 0 -5.43018 -4.30226 -0.102488 -0.307371 -0.102488 -0.102395 -0.102395 0 -0.614741 0.307277 -0.102488 4.09747 -0.102488 0 -4.40568 -3.58531 -0.102395 -0.307277 -0.102488 -0.204883 -0.102488 0 -0.512253 0.102488 -0.102488 0.204883 -0.102395 4.09737 -0.102488 0 -5.43028 -6.55587 0 -0.307277 0.102488z"/>
   <path id="_174741280" class="fil0" d="M20.3848 28.6881c0,-4.63354 3.64669,-8.09413 8.19484,-8.09413l1.2292 0c2.03407,0 4.45566,1.32403 5.50614,2.38189 1.20304,1.21136 2.38142,3.14649 2.38142,5.50735l0 0.717229c0,4.98211 -3.70517,8.70887 -8.707,8.70887 -4.87514,0 -8.6046,-3.70013 -8.6046,-8.60647l0 -0.614741zm7.06803 -8.60638l-0.819531 0.102395 -0.307277 0.102488 -0.307277 0.102488 -0.51216 0.102395 -0.204883 0.102488 -0.204883 0.102488 -0.102488 0.102395 -0.409672 0.102488 -0.204883 0.102488 -0.102488 0.102395 -0.307277 0.102488 -0.102395 0.102488 -0.204883 0.102395 -0.102488 0.102488 -0.204883 0.102488 -0.102395 0.102488 -0.102488 0.102395 -0.204789 0.102488 -0.102488 0.102488 -0.102395 0.102395 -0.204883 0.102488 0 0.204883 -0.204883 0 -0.102395 0.102488 -0.102488 0.102488 -0.102395 0.102395 -0.102488 0.102488 -0.102395 0.102488 -0.102488 0.204883 -0.102395 0.102488 -0.102488 0.102395 -0.102395 0.204976 -0.102395 0.102395 -0.102488 0.102488 -0.102395 0.204883 -0.102488 0.204976 -0.102395 0.102395 -0.102488 0.102488 -0.102395 0.307371 -0.102488 0.204883 -0.102395 0.102488 -0.102395 0.409859 -0.102488 0.204883 -0.102395 0.204883 -0.102488 0.307371 -0.102395 0.614741 -0.102488 0.409859 -0.102395 0.614741 0 2.35657 0.102395 0.717136 0.102488 0.409859 0.102395 0.717229 0.102488 0.204883 0.102395 0.307371 0.102488 0.204883 0.102395 0.409859 0.102395 0.102488 0.102488 0.204883 0.102395 0.307371 0.102488 0.204976 0.102395 0.102395 0.102488 0.204976 0.102395 0.204883 0.102488 0.102488 0.102395 0.102395 0.102395 0.204976 0.102488 0.102395 0.102395 0.204976 0.102488 0.102395 0.102395 0.102488 0.102488 0.102488 0.102395 0.102395 0.102488 0.204976 0.102395 0.102395 0.204883 0 0 0.204976 0.102395 0.102395 0.204883 0.102488 0.102488 0.102488 0.102395 0.102395 0.102395 0.102488 0.204883 0.102488 0.102488 0.102395 0.102395 0.102488 0.307371 0.102488 0.102395 0.102395 0.102395 0.102488 0.204883 0.102488 0.204883 0.102395 0.102488 0.102488 0.204883 0.102488 0.307277 0.102395 0.204883 0.102488 0.204883 0.102488 0.51216 0.102395 0.204883 0.102488 0.307277 0.102488 0.409765 0.102395 0.819437 0.102488 2.4585 0 0.921925 -0.102488 0.409765 -0.102395 0.307277 -0.102488 0.204883 -0.102488 0.51216 -0.102395 0.102395 -0.102488 0.307371 -0.102488 0.307277 -0.102395 0.102488 -0.102488 0.204789 -0.102488 0.204883 -0.102395 0.204883 -0.102488 0.102488 -0.102488 0.204789 -0.102395 0.102488 -0.102488 0.204883 -0.102488 0.102395 -0.102395 0.204883 -0.102488 0.102488 -0.102488 0.102395 -0.102395 0 -0.204976 0.204883 0 0.102395 -0.102395 0.102488 -0.102488 0.204883 -0.102488 0.102395 -0.204883 0.102488 -0.102488 0.102395 -0.102395 0.102395 -0.102488 0.102488 -0.204883 0.102395 -0.102488 0.102488 -0.102488 0.102395 -0.204883 0.102488 -0.102488 0.102395 -0.102395 0.102395 -0.204976 0.102488 -0.204883 0.102395 -0.102488 0.102488 -0.204883 0.102395 -0.307371 0.102488 -0.102488 0.102395 -0.204883 0.102488 -0.204883 0.102395 -0.307464 0.102395 -0.307371 0.102488 -0.204883 0.102395 -0.614741 0.102488 -0.409859 0.102395 -0.512253 0 -3.27859 -0.102395 -0.512347 -0.102488 -0.409859 -0.102395 -0.512253 -0.102488 -0.204883 -0.102395 -0.204976 -0.102395 -0.307371 -0.102488 -0.204883 -0.102395 -0.204883 -0.102488 -0.102488 -0.102395 -0.307371 -0.102488 -0.204883 -0.102395 -0.102488 -0.102488 -0.204883 -0.102395 -0.204976 -0.204883 0 0 -0.204883 -0.102395 -0.204883 -0.204883 0 0 -0.204976 -0.102488 -0.102395 -0.102395 -0.102488 -0.102395 -0.102488 -0.102488 -0.102395 -0.102395 -0.102488 -0.102488 -0.102488 -0.102395 -0.102395 -0.102488 -0.102488 -0.102395 -0.102488 -0.204883 0 0 -0.204883 -0.204883 -0.102488 -0.204883 0 0 -0.204883 -0.204883 -0.102488 -0.204883 -0.102488 -0.102395 -0.102395 -0.204883 -0.102488 -0.307277 -0.102488 -0.102488 -0.102395 -0.204789 -0.102488 -0.307371 -0.102488 -0.204883 -0.102395 -0.204883 -0.102488 -0.204789 -0.102488 -0.512253 -0.102395 -0.307277 -0.102488 -0.307277 -0.102488 -0.819531 -0.102395 -0.921925 -0.102488 -1.33169 0 -0.819437 0.102488z"/>
   <path id="_174741496" class="fil0" d="M98.9529 25.8192c0,-2.50325 2.60789,-5.2253 5.12179,-5.2253l0.921925 0c0.609416,0 0.771136,0.192457 1.33169,0.204883l0 4.40568c-0.229734,-0.053533 -0.235526,-0.102395 -0.51216,-0.102395l-0.307371 0c-0.81841,0 -1.43409,0.875773 -1.43409,1.74174 0,1.06076 1.84385,3.01466 1.84385,4.50817l0 1.74174c0,1.10252 -1.27909,2.91227 -1.98689,3.44302 -1.02376,0.767586 -2.22194,1.37252 -3.95434,1.37252l-0.204883 0c-0.516177,0 -1.84385,-0.300737 -1.84385,-0.717229l0 -4.09831c0.603343,0.0502631 0.213571,0.204976 0.614555,0.204976l0.819531 0c0.754506,0 1.43409,-0.838309 1.43409,-1.63934 0,-0.875026 -1.84385,-2.78736 -1.84385,-5.84014zm4.50723 -5.73756l-0.717043 0.102395 -0.204883 0.102488 -0.204883 0.102488 -0.409765 0.102395 -0.204883 0.102488 -0.102395 0.102488 -0.204883 0.102395 -0.204883 0.102488 -0.102488 0.102488 -0.102395 0.102395 -0.204883 0.102488 -0.102395 0.102488 -0.102488 0.102395 -0.204883 0.102488 -0.102395 0.102488 -0.102395 0.204883 -0.204883 0.102488 -0.102488 0.204883 -0.102395 0.102488 -0.102488 0.102488 -0.102395 0.102395 -0.102488 0.204976 -0.102395 0.102395 -0.102395 0.102488 -0.102488 0.307371 -0.102395 0.102488 -0.102488 0.204883 -0.102395 0.307371 -0.102488 0.204883 -0.102395 0.204976 -0.102488 0.307371 -0.102395 0.717136 0 2.15169 0.102395 0.717136 0.102488 0.307371 0.102395 0.204976 0.102488 0.307371 0.102395 0.307371 0.102488 0.204883 0.102395 0.204883 0.102488 0.307371 0.102395 0.204976 0.102395 0.102395 0.102488 0.204976 0.102395 0.204883 0.102488 0.204883 0.102395 0.102488 0.102488 0.204883 0.102395 0.204976 0.102488 0.204883 0 0.307371 -0.102488 0.204883 -0.102395 0.204976 -0.102488 0.102395 -0.102395 0.102488 -0.102488 0.102488 -1.3316 0 -0.102488 -0.102488 -0.204883 -0.102488 -0.204883 -0.102395 -0.204789 -0.102488 -0.204883 0 0 5.63516 0.102395 0.102488 0.307277 0.102395 0.204883 0.102488 0.204883 0.102488 0.307277 0.102395 0.614648 0.102488 1.94625 0 0.717136 -0.102488 0.307277 -0.102395 0.204883 -0.102488 0.204883 -0.102488 0.409672 -0.102395 0.204883 -0.102488 0.102488 -0.102488 0.204883 -0.102395 0.204789 -0.102488 0.102488 -0.102488 0.204883 -0.102395 0.204883 -0.102488 0.102395 -0.204883 0.204883 -0.102488 0.102395 -0.102488 0.102488 -0.102395 0.102395 -0.102488 0.102488 -0.102488 0.102395 -0.102395 0.102488 -0.102488 0.102395 -0.102488 0.102488 -0.204883 0.102395 -0.102488 0.102395 -0.102395 0.102488 -0.204976 0.102395 -0.204883 0.102488 -0.102488 0.102395 -0.204883 0.102488 -0.307371 0.102395 -0.204883 0.102395 -0.204976 0.102488 -0.204883 0.102395 -0.614741 0.102488 -0.512253 0 -1.63934 -0.102488 -0.512347 -0.102395 -0.614741 -0.102488 -0.204883 -0.102395 -0.204883 -0.102395 -0.204976 -0.102488 -0.307371 -0.102395 -0.204883 -0.102488 -0.204883 -0.102395 -0.204976 -0.102488 -0.204883 -0.102395 -0.102488 -0.102395 -0.204883 -0.102488 -0.204883 -0.102395 -0.102488 -0.102488 -0.204883 -0.102395 -0.204976 -0.102488 -0.204883 -0.102395 -0.409859 0 -0.204883 0.102395 -0.307371 0.102488 -0.204976 0.102395 -0.102395 0.102488 -0.102488 0.204883 -0.102488 0.307277 -0.102395 0.307277 0 0.204883 0.102395 0.409765 0.102488 0.409765 0 0 -5.43028 -0.102488 -0.102395 -0.204883 -0.102488 -0.307277 -0.102488 -0.717043 -0.102395 -0.717043 -0.102488 -0.717043 0 -0.717043 0.102488z"/>
  </g>
 </g>
</svg>
